<?xml version="1.0" encoding="UTF-8"?>
<svg width="295" height="295" viewBox="0 0 234.375 265.74310128341455" version="1.1" xmlns="http://www.w3.org/2000/svg">
	<g featurekey="rootContainer" transform="matrix(4.725301111045653,0,0,4.725301111045653,0.0000347689931040783,0.019721259814305742)" fill="#3a4750">
		<path xmlns="http://www.w3.org/2000/svg" d="M23.11 55.78L1.69 43.41A3.39 3.39 0 0 1 0 40.48V15.75a3.39 3.39 0 0 1 1.69-2.94L23.11.45a3.39 3.39 0 0 1 3.39 0l21.41 12.37a3.39 3.39 0 0 1 1.69 2.94v24.72a3.39 3.39 0 0 1-1.69 2.94L26.5 55.78a3.39 3.39 0 0 1-3.39 0z"/>
	</g>
	<g featurekey="symbolFeature-0" transform="matrix(0.15669205658324264,0,0,0.15669205658324264,76.97867252984945,59.81632196968087)" fill="#eeeeee">
		<g xmlns="http://www.w3.org/2000/svg">
			<g>
				<g>
					<path d="M478.6,396.6H34.4c-11.8,0-21.4-9.6-21.4-21.5V48.2c0-11.8,9.6-21.5,21.4-21.5h444.2c11.8,0,21.4,9.6,21.4,21.5v326.9     C500,387,490.4,396.6,478.6,396.6z M34.4,34.8c-7.4,0-13.4,6-13.4,13.5v326.9c0,7.4,6,13.5,13.4,13.5h444.2     c7.4,0,13.4-6,13.4-13.5V48.2c0-7.4-6-13.5-13.4-13.5H34.4z"/>
				</g>
				<g>
					<path d="M314.6,455.8C314.6,455.8,314.6,455.8,314.6,455.8H198.3c-1.2,0-2.3-0.5-3-1.4c-0.8-0.9-1.1-2.1-0.9-3.2l9.4-59.2     c0.3-1.9,2-3.4,4-3.4h97.6c2,0,3.6,1.4,4,3.4l9.3,58.8c0.1,0.3,0.1,0.7,0.1,1C318.6,454,316.9,455.8,314.6,455.8z M203,447.8h107     l-8.1-51.2h-90.7L203,447.8z"/>
				</g>
				<g>
					<path d="M352.3,486.2H160.7c-2.2,0-4-1.8-4-4v-30.4c0-2.2,1.8-4,4-4h191.6c2.2,0,4,1.8,4,4v30.4     C356.3,484.4,354.5,486.2,352.3,486.2z M164.7,478.2h183.6v-22.4H164.7V478.2z"/>
				</g>
				<g>
					<path d="M496,322.2H16.9c-2.2,0-4-1.8-4-4s1.8-4,4-4H496c2.2,0,4,1.8,4,4S498.2,322.2,496,322.2z"/>
				</g>
				<g>
					<path d="M256.5,376.7c-11.8,0-21.4-9.6-21.4-21.3c0-11.8,9.6-21.4,21.4-21.4c11.8,0,21.4,9.6,21.4,21.4     C277.8,367.2,268.3,376.7,256.5,376.7z M256.5,342c-7.4,0-13.4,6-13.4,13.4c0,7.4,6,13.3,13.4,13.3c7.4,0,13.4-6,13.4-13.3     C269.8,348,263.8,342,256.5,342z"/>
				</g>
				<g>
					<path d="M269.4,267.2h-25c-2.2,0-4-1.8-4-4v-14.5c-8.6-1.9-16.7-5.2-24.3-9.9l-10.4,10.4c-0.8,0.8-1.8,1.2-2.8,1.2c0,0,0,0,0,0     c-1.1,0-2.1-0.4-2.8-1.2l-17.7-17.7c-1.6-1.6-1.6-4.1,0-5.7l10.3-10.2c-4.7-7.3-8.2-15.5-10.2-24.2h-14.7c-2.2,0-4-1.8-4-4v-25     c0-2.2,1.8-4,4-4h14.5c1.9-8.7,5.2-16.8,9.9-24.3l-10.4-10.4c-1.6-1.6-1.6-4.1,0-5.7l17.7-17.7c0.8-0.8,1.8-1.2,2.8-1.2     c0,0,0,0,0,0c1.1,0,2.1,0.4,2.8,1.2l10.2,10.3c7.4-4.8,15.5-8.2,24.2-10.2V85.7c0-2.2,1.8-4,4-4h25c2.2,0,4,1.8,4,4v14.5     c8.6,1.9,16.8,5.2,24.3,9.9l10.4-10.4c0.8-0.8,1.8-1.2,2.8-1.2h0c1.1,0,2.1,0.4,2.8,1.2l17.7,17.7c1.6,1.6,1.6,4.1,0,5.7     l-10.3,10.2c4.7,7.3,8.2,15.5,10.2,24.2h14.7c2.2,0,4,1.8,4,4v25c0,2.2-1.8,4-4,4h-14.5c-1.9,8.6-5.2,16.8-9.9,24.3l10.4,10.4     c1.6,1.6,1.6,4.1,0,5.7l-17.7,17.6c-1.6,1.6-4.1,1.6-5.7,0l-10.2-10.3c-7.4,4.8-15.5,8.2-24.2,10.2v14.7     C273.4,265.4,271.6,267.2,269.4,267.2z M248.3,259.2h17v-14c0-1.9,1.4-3.6,3.3-3.9c9.9-1.8,19-5.7,27.1-11.4     c1.6-1.1,3.8-1,5.1,0.4l9.8,9.8l12-12l-9.9-9.9c-1.4-1.4-1.6-3.5-0.5-5.1c5.7-8.2,9.4-17.4,11.1-27.2c0.3-1.9,2-3.3,3.9-3.3h13.8     v-17h-13.9c-1.9,0-3.6-1.4-3.9-3.3c-1.8-9.8-5.7-19.2-11.4-27.1c-1.1-1.6-1-3.8,0.4-5.2l9.8-9.8l-12-12l-9.9,9.9     c-1.4,1.4-3.5,1.6-5.1,0.5c-8.3-5.7-17.4-9.5-27.2-11.1c-1.9-0.3-3.3-2-3.3-3.9V89.7h-17v14c0,1.9-1.4,3.6-3.3,3.9     c-9.8,1.8-19,5.7-27.1,11.4c-1.6,1.1-3.8,0.9-5.2-0.4l-9.8-9.8l-12,12l9.9,9.9c1.4,1.4,1.6,3.5,0.5,5.1     c-5.7,8.2-9.4,17.3-11.1,27.2c-0.3,1.9-2,3.3-3.9,3.3h-13.8v17h13.9c1.9,0,3.6,1.4,3.9,3.3c1.8,9.8,5.7,19.2,11.4,27.1     c1.1,1.6,1,3.8-0.4,5.2l-9.8,9.8l12,12l9.9-9.9c1.4-1.4,3.5-1.6,5.1-0.5c8.3,5.7,17.4,9.4,27.2,11.1c1.9,0.3,3.3,2,3.3,3.9     L248.3,259.2L248.3,259.2z"/>
				</g>
				<g>
					<path d="M256.5,217.7c-23.8,0-43.2-19.4-43.2-43.3c0-23.8,19.4-43.2,43.2-43.2s43.2,19.4,43.2,43.2     C299.7,198.3,280.3,217.7,256.5,217.7z M256.5,139.2c-19.4,0-35.2,15.8-35.2,35.2c0,19.5,15.8,35.3,35.2,35.3     c19.4,0,35.2-15.8,35.2-35.3C291.7,155,275.9,139.2,256.5,139.2z"/>
				</g>
			</g>
		</g>
	</g>
	<g featurekey="nameFeature-0" transform="matrix(1.5813139090041544,0,0,1.5813139090041544,39.74140723369397,137.92827191379857)" fill="#eeeeee">
		<path d="M29.714 11.428999999999998 l6.8571 0 l0 3.4286 l-6.9714 25.143 l-6.8571 0 l-3.7143 -13.486 l-3.7143 13.486 l-6.8571 0 l-7.0286 -25.143 l0 -3.4286 l6.8571 0 l4.1714 16.914 l4.1143 -16.914 l4.8571 0 l4.1714 16.914 z M62.57114285714285 11.428999999999998 l4.2857 4.2857 l0 20 l-4.2857 4.2857 l-16.571 0 l-4.2857 -4.2857 l0 -20 l4.2857 -4.2857 l16.571 0 z M59.42814285714286 33.7143 l0 -16 l-10.286 0 l0 16 l10.286 0 z M73.42852857142857 35.7143 l0 -24.286 l7.4286 0 l0 22.286 l15.429 0 l0 6.2857 l-18.571 0 z"/>
	</g>
</svg>